<?xml version="1.0" encoding="UTF-8"?>
<svg id="Livello_2" xmlns="http://www.w3.org/2000/svg" viewBox="0 0 709.8 47.6">
  <defs>
    <style>
      .cls-1 {
        fill: #0965ad;
      }

      .cls-2 {
        fill: #1e4036;
      }
    </style>
  </defs>
  <g id="Livello_1-2" data-name="Livello_1">
    <g>
      <path class="cls-2" d="M667.2.2h8.66v19.18h25.21V.2h8.73v46.49h-8.73v-19.45h-25.21v19.45h-8.66V.2ZM631.2,8.05h-18.22V.2h45.11v7.86h-18.22v38.63h-8.66V8.05h0ZM581.84.2h8.66v38.57h28.37v7.92h-37.04V.2ZM557.79,29.53l-8.21-18.73-8.27,18.73h16.48ZM561.08,37.12h-23.07l-4.2,9.56h-8.73L545.7,0h8.21l20.68,46.69h-9.31l-4.2-9.56ZM478.1.2h37.17v7.6h-28.5v10.61h17v7.66h-17v12.83h31.09v7.79h-39.75V.2h0ZM423.96.2h8.66v19.18h25.21V.2h8.73v46.49h-8.73v-19.45h-25.21v19.45h-8.66V.2ZM385.14,29.53l-8.27-18.79-8.27,18.79h16.54ZM388.44,37.12h-23.14l-4.2,9.56h-8.73L372.99,0h8.21l20.68,46.69h-9.24l-4.2-9.56ZM311.78,7.99v11.92h16.29c4.98,0,7.5-1.97,7.5-5.83,0-4.25-2.52-6.09-7.5-6.09h-16.29ZM303.12.2h25.66c10.08,0,15.71,4.71,15.71,13.88,0,6.29-3.17,10.74-9.05,12.57l10.8,20.04h-9.18l-10.41-19.12h-14.87v19.12h-8.66V.2h0ZM248.77.2h45.11v7.86h-18.23v38.63h-8.66V8.05h-18.23V.2h0ZM231.86,26.06V.2h8.59v26.45c0,11.66-7.3,20.95-21.07,20.95s-21.2-9.16-21.2-20.95V.2h8.73v25.87c0,8.05,4.39,13.36,12.47,13.36s12.47-5.3,12.47-13.36h0ZM186.75,46.88h-6.79l-27.86-35.62v35.42h-8.4V.2h10.08l24.63,31.89V.2h8.34v46.69h0ZM111.47,19.59h21.52v7.79h-21.52v-7.79ZM110.45,46.69h-37.04V.2h8.66v38.57h28.37v7.92Z"/>
      <path class="cls-1" d="M29.06,40.95c-14.08-1.56-19.44-14.15-18.36-24.85l.15.64c1.49,7.14,4.36,10.78,11.43,11.56,4.31.48,8.81.86,12.36,2.25h0c5.06,1.8,9.6,7.51,11.24,14.21V.2H.05c5.19,5.7,10.77,5.27,16.76,5.72,14.08,1.56,19.44,14.15,18.36,24.85l-.15-.64c-1.49-7.14-4.36-10.78-11.43-11.56-4.31-.48-8.81-.86-12.36-2.25h0C6.2,14.52,1.67,8.87,0,2.22v44.46h45.84c-5.2-5.73-10.79-5.29-16.78-5.74h0Z"/>
    </g>
  </g>
</svg>